# xmcd
#
# Track frame offsets:
#	150
#	14222
#	26327
#	43827
#	60462
#	76615
#	92277
#	106032
#	121565
#	136557
#	157407
#	171272
#	185557
#	200427
#	216957
#	235670
#	250332
#	264357
#	280420
#	295145
#
# Disc length: 4165 seconds
#
# Revision: 1
# Processed by: cddbd v1.5.2PL0 Copyright (c) Steve Scherf et al.
# Submitted via: audiograbber 1.83.01
#
DISCID=0e104314
DTITLE=Various Artist - A Dozen Red Roses
DYEAR=1998
DGENRE=Country
TTITLE0=Tammy Graham - A Dozen Red Roses
TTITLE1=Mindy McCready - A Girls Gotta Do
TTITLE2=Pam Tillis - Spilled Perfume
TTITLE3=Shanley Del - Wild Blossoms
TTITLE4=Martina McBride - Be That Way
TTITLE5=Sherrie Austin - Lucky In Love
TTITLE6=Regina Regina - Asking For The Moon
TTITLE7=Lorrie Morgan - Good As I Was To You
TTITLE8=Michelle Wright - Nobody's Girl
TTITLE9=Sherry Rich - When I See You Tonight
TTITLE10=Mindy McCready - The Other Side Of This Kiss
TTITLE11=Martina McBride - Cry On The Shoulder Of The Road
TTITLE12=Pam Tillis - All The Good Ones Are Gone
TTITLE13=Tammy Graham - Let The Girl Be Herself
TTITLE14=Regina Regina - I Should Be Laughing
TTITLE15=Lorrie Morgan - Will You Love Me Tomorrow
TTITLE16=Sherry Rich - Is That All You Wanted
TTITLE17=Sara Evans - I Don't Wanna See The Light
TTITLE18=Carlene Carter - Sweet Meant To Be
TTITLE19=Shanley Del - Red Roses
EXTD=
EXTT0=
EXTT1=
EXTT2=
EXTT3=
EXTT4=
EXTT5=
EXTT6=
EXTT7=
EXTT8=
EXTT9=
EXTT10=
EXTT11=
EXTT12=
EXTT13=
EXTT14=
EXTT15=
EXTT16=
EXTT17=
EXTT18=
EXTT19=
PLAYORDER=
